<svg width="23" height="25" viewBox="0 0 23 25" fill="none" xmlns="http://www.w3.org/2000/svg">
<path d="M9.76497 0.562573C10.2188 0.198448 10.7833 0 11.3652 0C11.9471 0 12.5115 0.198448 12.9654 0.562573L21.7734 7.62831C22.0721 7.86792 22.3131 8.17154 22.4788 8.51676C22.6444 8.86199 22.7304 9.24 22.7304 9.6229V22.4428C22.7304 23.121 22.461 23.7715 21.9814 24.251C21.5018 24.7306 20.8514 25 20.1732 25H17.3319C16.6537 25 16.0033 24.7306 15.5237 24.251C15.0442 23.7715 14.7747 23.121 14.7747 22.4428V15.0555C14.7747 14.8294 14.6849 14.6126 14.5251 14.4527C14.3652 14.2929 14.1484 14.2031 13.9224 14.2031H8.80802C8.58195 14.2031 8.36514 14.2929 8.20529 14.4527C8.04544 14.6126 7.95563 14.8294 7.95563 15.0555V22.4428C7.95563 23.121 7.68622 23.7715 7.20665 24.251C6.72709 24.7306 6.07667 25 5.39846 25H2.55717C1.87896 25 1.22854 24.7306 0.748977 24.251C0.269415 23.7715 0 23.121 0 22.4428V9.6229C0 8.84666 0.352321 8.1136 0.956949 7.62831L9.76497 0.562573Z" fill="white"/>
</svg>
