<svg width="74" height="74" viewBox="0 0 74 74" fill="none" xmlns="http://www.w3.org/2000/svg">
<path d="M59.2 54.0422L54.2457 49.2803C53.0692 48.0011 51.6089 47.016 49.9821 46.4043C48.3554 45.7926 46.6078 45.5715 44.88 45.7587C43.1521 45.9459 41.4924 46.5361 40.0344 47.482C38.5764 48.4278 37.3609 49.7028 36.4857 51.2043L21.978 74H7.4C5.4374 74 3.55518 73.2203 2.16741 71.8326C0.77964 70.4448 0 68.5626 0 66.6V29.6C0 27.6374 0.77964 25.7552 2.16741 24.3674C3.55518 22.9796 5.4374 22.2 7.4 22.2H51.8C53.7626 22.2 55.6448 22.9796 57.0326 24.3674C58.4203 25.7552 59.2 27.6374 59.2 29.6V54.0422ZM59.2 64.2246V66.6C59.2 68.5626 58.4203 70.4448 57.0326 71.8326C55.6448 73.2203 53.7626 74 51.8 74H31.4944L42.8793 54.9302C43.1708 54.4295 43.5758 54.0043 44.0617 53.6888C44.5476 53.3733 45.1008 53.1763 45.6767 53.1136C46.2527 53.051 46.8353 53.1245 47.3777 53.3282C47.92 53.5319 48.407 53.8601 48.7993 54.2864L59.2 64.2246ZM22.2 55.5C23.6577 55.5 25.1011 55.2129 26.4478 54.655C27.7945 54.0972 29.0181 53.2796 30.0489 52.2489C31.0796 51.2181 31.8972 49.9945 32.4551 48.6478C33.0129 47.3011 33.3 45.8577 33.3 44.4C33.3 42.9423 33.0129 41.4989 32.4551 40.1522C31.8972 38.8055 31.0796 37.5818 30.0489 36.5511C29.0181 35.5204 27.7945 34.7028 26.4478 34.1449C25.1011 33.5871 23.6577 33.3 22.2 33.3C19.2561 33.3 16.4328 34.4694 14.3511 36.5511C12.2695 38.6327 11.1 41.4561 11.1 44.4C11.1 47.3439 12.2695 50.1672 14.3511 52.2489C16.4328 54.3305 19.2561 55.5 22.2 55.5ZM14.8 18.5V7.4C14.8 5.4374 15.5796 3.55518 16.9674 2.16741C18.3552 0.77964 20.2374 0 22.2 0H66.6C68.5626 0 70.4448 0.77964 71.8326 2.16741C73.2203 3.55518 74 5.4374 74 7.4V32.412L69.0457 27.0803C67.2233 25.0967 64.7418 23.8435 62.0638 23.5542C60.7096 20.5609 57.868 18.5 54.575 18.5H47.471C46.7066 16.3335 45.2889 14.4575 43.4136 13.1305C41.5382 11.8035 39.2974 11.0909 37 11.0909C34.7026 11.0909 32.4618 11.8035 30.5864 13.1305C28.711 14.4575 27.2934 16.3335 26.529 18.5H14.8ZM62.9 51.8V31.4944C63.1567 31.662 63.3916 31.8608 63.5993 32.0864L74 43.1457V44.4C74 46.3626 73.2203 48.2448 71.8326 49.6326C70.4448 51.0203 68.5626 51.8 66.6 51.8H62.9Z" fill="white"/>
</svg>
