<svg width="62" height="61" viewBox="0 0 62 61" fill="none" xmlns="http://www.w3.org/2000/svg">
<path d="M30.6742 48.4179C30.8546 48.478 30.9749 48.5983 31.035 48.7787C31.0951 48.9591 31.0651 49.1394 30.9448 49.3198L23.4587 56.806C22.2561 58.0085 20.8731 58.9706 19.3098 59.6922C17.7464 60.4137 16.153 60.8346 14.5295 60.9549C12.906 61.0751 11.2825 60.9549 9.65898 60.5941C8.03548 60.2333 6.56231 59.4817 5.23946 58.3393C3.61597 57.0765 2.35325 55.5432 1.45131 53.7394C0.549365 51.9355 0.0683289 50.1316 0.00819947 48.3277C-0.05193 46.5238 0.218653 44.6899 0.819947 42.8259C1.42124 40.9618 2.44344 39.3383 3.88655 37.9554L15.5216 26.3203C17.3856 24.4563 19.5503 23.0733 22.0156 22.1714C24.4809 21.2694 27.0063 21.0289 29.5919 21.4498C31.8768 21.8106 33.6807 22.472 35.0036 23.4341C36.3264 24.3962 37.3787 25.5086 38.1603 26.7713C38.2806 27.0719 38.2656 27.2974 38.1152 27.4477C37.9649 27.5981 37.7996 27.7334 37.6192 27.8536C37.4388 27.9739 37.2283 28.1543 36.9878 28.3948L36.3565 29.0261C35.7552 29.6876 35.0336 30.0183 34.1918 30.0183C33.35 30.0183 32.5833 29.6725 31.8919 28.981C31.2004 28.2896 30.4337 27.7634 29.5919 27.4026C28.7501 27.0419 27.8181 26.8915 26.7959 26.9517C25.7737 27.0118 24.8717 27.1621 24.0901 27.4026C23.3084 27.6432 22.4966 28.1843 21.6548 29.0261L8.30607 42.3749C7.52438 43.1566 6.95315 44.0585 6.59238 45.0807C6.2316 46.1029 6.11134 47.1251 6.2316 48.1473C6.35186 49.1695 6.65251 50.1917 7.13354 51.2139C7.61458 52.2361 8.39626 53.0479 9.47859 53.6492C10.9818 54.6714 12.6053 55.0321 14.3491 54.7315C16.0928 54.4308 17.566 53.7093 18.7686 52.5668L24.541 46.8846C24.6613 46.7042 24.8417 46.6741 25.0822 46.7944C26.8861 47.5761 28.7501 48.1172 30.6742 48.4179ZM55.7482 2.77962C57.3717 4.04234 58.6344 5.54558 59.5364 7.28933C60.4383 9.03309 60.9494 10.837 61.0697 12.701C61.1899 14.565 60.9194 16.429 60.2579 18.293C59.5965 20.157 58.5442 21.7805 57.1011 23.1635L45.4661 34.7986C43.6021 36.6626 41.4374 38.0155 38.9721 38.8573C36.5068 39.6991 33.9513 39.9396 31.3056 39.5789C29.0207 39.2782 27.2468 38.6168 25.9841 37.5946C24.7214 36.5724 23.6691 35.46 22.8273 34.2574C22.7071 34.0169 22.7371 33.8064 22.9175 33.626L24.541 32.0025C25.2024 31.4013 25.9541 31.1006 26.7959 31.1006C27.6377 31.1006 28.3592 31.4013 28.9605 32.0025C29.6821 32.7241 30.4938 33.2653 31.3958 33.626C32.2977 33.9868 33.2297 34.1672 34.1918 34.1672C35.1539 34.1672 36.0859 33.9868 36.9878 33.626C37.8898 33.2653 38.6714 32.7241 39.3329 32.0025L52.6816 18.744C53.4633 17.9623 54.0345 17.0303 54.3953 15.948C54.7561 14.8656 54.8763 13.8134 54.7561 12.7912C54.6358 11.769 54.3051 10.7768 53.7639 9.81477C53.2228 8.8527 52.4411 8.04095 51.4189 7.37953C49.9758 6.41745 48.3824 6.05668 46.6386 6.2972C44.8948 6.53771 43.3916 7.28933 42.1289 8.55205L36.4467 14.2343C36.2663 14.4147 36.0859 14.4447 35.9055 14.3245C34.2219 13.6029 32.3579 13.0317 30.3135 12.6108C30.0729 12.6108 29.9527 12.4905 29.9527 12.25C29.9527 12.0095 29.9827 11.8592 30.0429 11.799L37.529 4.31292C38.7316 3.11033 40.1146 2.14826 41.6779 1.42671C43.2413 0.705155 44.8047 0.254184 46.368 0.0737953C47.9314 -0.106593 49.5549 0.0437305 51.2385 0.524766C52.9221 1.0058 54.4254 1.75742 55.7482 2.77962Z" fill="white"/>
</svg>
