<svg width="25" height="25" viewBox="0 0 25 25" fill="none" xmlns="http://www.w3.org/2000/svg">
<path d="M20 18.2575L18.3262 16.6488C17.9288 16.2166 17.4354 15.8838 16.8859 15.6771C16.3363 15.4705 15.7459 15.3958 15.1622 15.459C14.5784 15.5223 14.0177 15.7217 13.5251 16.0412C13.0326 16.3608 12.6219 16.7915 12.3263 17.2987L7.425 25H2.5C1.83696 25 1.20107 24.7366 0.732233 24.2678C0.263392 23.7989 0 23.163 0 22.5V10C0 9.33696 0.263392 8.70107 0.732233 8.23223C1.20107 7.76339 1.83696 7.5 2.5 7.5H17.5C18.163 7.5 18.7989 7.76339 19.2678 8.23223C19.7366 8.70107 20 9.33696 20 10V18.2575ZM20 21.6975V22.5C20 23.163 19.7366 23.7989 19.2678 24.2678C18.7989 24.7366 18.163 25 17.5 25H10.64L14.4862 18.5575C14.5847 18.3884 14.7216 18.2447 14.8857 18.1381C15.0499 18.0315 15.2368 17.965 15.4313 17.9438C15.6259 17.9226 15.8227 17.9475 16.006 18.0163C16.1892 18.0851 16.3537 18.196 16.4862 18.34L20 21.6975ZM7.5 18.75C7.99246 18.75 8.48009 18.653 8.93506 18.4645C9.39003 18.2761 9.80343 17.9999 10.1517 17.6517C10.4999 17.3034 10.7761 16.89 10.9645 16.4351C11.153 15.9801 11.25 15.4925 11.25 15C11.25 14.5075 11.153 14.0199 10.9645 13.5649C10.7761 13.11 10.4999 12.6966 10.1517 12.3483C9.80343 12.0001 9.39003 11.7239 8.93506 11.5355C8.48009 11.347 7.99246 11.25 7.5 11.25C6.50544 11.25 5.55161 11.6451 4.84835 12.3483C4.14509 13.0516 3.75 14.0054 3.75 15C3.75 15.9946 4.14509 16.9484 4.84835 17.6517C5.55161 18.3549 6.50544 18.75 7.5 18.75ZM5 6.25V2.5C5 1.83696 5.26339 1.20107 5.73223 0.732233C6.20107 0.263392 6.83696 0 7.5 0H22.5C23.163 0 23.7989 0.263392 24.2678 0.732233C24.7366 1.20107 25 1.83696 25 2.5V10.95L23.3262 9.14875C22.7106 8.47862 21.8722 8.05523 20.9675 7.9575C20.51 6.94625 19.55 6.25 18.4375 6.25H16.0375C15.7792 5.51808 15.3003 4.88429 14.6667 4.43599C14.0332 3.98768 13.2761 3.74694 12.5 3.74694C11.7239 3.74694 10.9668 3.98768 10.3333 4.43599C9.69967 4.88429 9.22075 5.51808 8.9625 6.25H5ZM21.25 17.5V10.64C21.3367 10.6966 21.4161 10.7638 21.4862 10.84L25 14.5763V15C25 15.663 24.7366 16.2989 24.2678 16.7678C23.7989 17.2366 23.163 17.5 22.5 17.5H21.25Z" fill="white"/>
</svg>
