<svg width="24" height="24" viewBox="0 0 24 24" fill="none" xmlns="http://www.w3.org/2000/svg">
<path d="M18 16.606L16.661 15.319C16.343 14.9733 15.9483 14.707 15.5087 14.5417C15.069 14.3764 14.5967 14.3166 14.1297 14.3672C13.6627 14.4178 13.2142 14.5773 12.8201 14.833C12.4261 15.0886 12.0975 15.4332 11.861 15.839L7.94 22H4C3.46957 22 2.96086 21.7893 2.58579 21.4142C2.21071 21.0391 2 20.5304 2 20V10C2 9.46957 2.21071 8.96086 2.58579 8.58579C2.96086 8.21071 3.46957 8 4 8H16C16.5304 8 17.0391 8.21071 17.4142 8.58579C17.7893 8.96086 18 9.46957 18 10V16.606ZM18 19.358V20C18 20.5304 17.7893 21.0391 17.4142 21.4142C17.0391 21.7893 16.5304 22 16 22H10.512L13.589 16.846C13.6678 16.7107 13.7773 16.5958 13.9086 16.5105C14.0399 16.4252 14.1894 16.372 14.3451 16.355C14.5007 16.3381 14.6582 16.358 14.8048 16.413C14.9514 16.4681 15.083 16.5568 15.189 16.672L18 19.358ZM8 17C8.39397 17 8.78407 16.9224 9.14805 16.7716C9.51203 16.6209 9.84274 16.3999 10.1213 16.1213C10.3999 15.8427 10.6209 15.512 10.7716 15.1481C10.9224 14.7841 11 14.394 11 14C11 13.606 10.9224 13.2159 10.7716 12.8519C10.6209 12.488 10.3999 12.1573 10.1213 11.8787C9.84274 11.6001 9.51203 11.3791 9.14805 11.2284C8.78407 11.0776 8.39397 11 8 11C7.20435 11 6.44129 11.3161 5.87868 11.8787C5.31607 12.4413 5 13.2044 5 14C5 14.7956 5.31607 15.5587 5.87868 16.1213C6.44129 16.6839 7.20435 17 8 17ZM6 7V4C6 3.46957 6.21071 2.96086 6.58579 2.58579C6.96086 2.21071 7.46957 2 8 2H20C20.5304 2 21.0391 2.21071 21.4142 2.58579C21.7893 2.96086 22 3.46957 22 4V10.76L20.661 9.319C20.1685 8.7829 19.4978 8.44419 18.774 8.366C18.408 7.557 17.64 7 16.75 7H14.83C14.6234 6.41447 14.2403 5.90743 13.7334 5.54879C13.2265 5.19015 12.6209 4.99755 12 4.99755C11.3791 4.99755 10.7735 5.19015 10.2666 5.54879C9.75974 5.90743 9.3766 6.41447 9.17 7H6ZM19 16V10.512C19.0694 10.5573 19.1329 10.611 19.189 10.672L22 13.661V14C22 14.5304 21.7893 15.0391 21.4142 15.4142C21.0391 15.7893 20.5304 16 20 16H19Z" fill="black"/>
</svg>
