<svg width="102" height="91" viewBox="0 0 102 91" fill="none" xmlns="http://www.w3.org/2000/svg">
<path d="M35.7202 90.0014C42.0486 90.0014 48.377 89.9415 54.7054 89.7617L64.2032 89.492C65.7557 89.4886 67.3068 89.402 68.8495 89.2324C70.3449 89.0221 71.8064 88.6261 73.1984 88.0538C75.9448 86.9281 78.3622 85.1574 80.2345 82.9001C81.1552 81.7304 81.9621 80.4799 82.6448 79.1646L84.9834 75.1695C88.0604 69.806 91.3015 64.4825 94.5427 59.189L96.994 55.1938C97.4248 54.5246 97.8043 53.8854 98.1531 53.2662L98.6351 52.2674L99.0556 51.2686C100.614 47.085 100.456 42.4773 98.6146 38.4043C98.0095 37.0759 97.1787 35.7175 96.4402 34.4091L91.8041 26.339C88.6758 20.9855 85.5167 15.612 82.2756 10.3584C80.6438 7.83385 78.3699 5.76252 75.6745 4.34513C72.979 2.92775 69.9533 2.21235 66.8905 2.26827C60.562 2.38812 54.2234 2.56791 47.8949 2.62783L38.3972 2.76766H36.0279C35.2989 2.75115 34.5695 2.77449 33.8432 2.83758C29.4241 3.34165 25.3788 5.49746 22.5608 8.85025C21.6384 9.99598 20.828 11.2232 20.1402 12.5158L17.7914 16.5109C14.7143 21.8744 11.4937 27.1979 8.33464 32.5414L5.93456 36.5365L5.33967 37.5353L4.82683 38.4742L4.36527 39.473L3.98577 40.4717C3.0356 43.1569 2.79227 46.0312 3.27806 48.8316C3.52166 50.2372 3.94908 51.6067 4.5499 52.9066C5.12427 54.1651 5.96533 55.5434 6.70381 56.9017L11.2783 65.0019L20.2735 81.282C21.8344 83.922 24.0804 86.116 26.7865 87.6443C29.5071 89.1642 32.5838 89.976 35.7202 90.0014ZM35.7202 90.3011C32.4943 90.3003 29.3197 89.5151 26.4843 88.0169C23.649 86.5187 21.2427 84.3548 19.4837 81.7215L9.47314 65.9907L4.4781 58.1203C3.65756 56.7819 2.80625 55.5534 2.01648 54.0352C1.27065 52.5372 0.722683 50.9531 0.385653 49.321C-0.292667 46.0308 -0.0734064 42.6249 1.02157 39.443L1.47287 38.2644L1.99596 37.1158L2.59086 36.0072L3.17549 35.0084L5.52429 31.0133C8.68337 25.6698 11.8322 20.3263 15.0528 15.0327L17.4324 10.9877C18.2416 9.57969 19.1751 8.24295 20.2222 6.99252C23.5604 3.11217 28.3149 0.645046 33.4842 0.110897C34.3226 0.0298865 35.1649 -0.00678945 36.0074 0.00103096H38.3767L47.8744 0.130873C54.2029 0.230751 60.5108 0.410532 66.8699 0.530386C70.1798 0.591922 73.4182 1.47915 76.2754 3.10725C79.1075 4.72031 81.4776 7.00085 83.1679 9.73917C86.3168 15.1126 89.4553 20.4461 92.6657 25.7696L97.5274 33.7599C98.3479 35.0883 99.2095 36.3468 99.9685 37.7551C100.698 39.1994 101.243 40.7257 101.589 42.2995C102.271 45.5006 102.102 48.8184 101.097 51.9378L100.676 53.0864L100.184 54.215C99.8146 54.9641 99.4249 55.6832 99.0454 56.3324L96.7581 60.3875C93.6811 65.7709 90.5425 71.1344 87.3219 76.4379L84.9218 80.4331C84.1103 81.8443 83.1697 83.1815 82.1115 84.4282C78.7809 88.1544 74.0895 90.4691 69.0341 90.8804C68.2157 90.95 67.3935 90.97 66.5725 90.9403L64.2032 90.8704L54.7054 90.6007C48.377 90.361 42.0486 90.321 35.7202 90.3011Z" fill="#AD4CED"/>
<path opacity="0.9" d="M55.2768 77.6771C70.0729 77.6771 82.0674 65.8673 82.0674 51.2992C82.0674 36.7311 70.0729 24.9213 55.2768 24.9213C40.4807 24.9213 28.4861 36.7311 28.4861 51.2992C28.4861 65.8673 40.4807 77.6771 55.2768 77.6771Z" fill="#00E4AE"/>
<path opacity="0.9" d="M47.2971 66.5807C62.0932 66.5807 74.0878 54.7709 74.0878 40.2028C74.0878 25.6347 62.0932 13.8249 47.2971 13.8249C32.5011 13.8249 20.5065 25.6347 20.5065 40.2028C20.5065 54.7709 32.5011 66.5807 47.2971 66.5807Z" fill="#AD4CED"/>
</svg>
